# xmcd
#
# Track frame offsets:
#  150
#  26629
#  62822
#  75769
#  97270
#  124263
#  157037
#  174573
#  177825
#  222220
#
# Disc length: 3411 seconds
#
# Revision: 0
# Processed by: cddbd v1.5.2PL0 Copyright (c) Steve Scherf et al.
# Submitted via: AltoMP3_Maker 3.0
#
DISCID=830d510a
DTITLE=Garcia, Russell, Sahm and Friends - Armadillo Festival 1972, CD 2
DYEAR=1900
DGENRE=
TTITLE0=The Day I Started Loving You Again
TTITLE1=Honky Tonkin'
TTITLE2=Orange Blossom Special
TTITLE3=Kentucky Waltz
TTITLE4=Big Boss Man
TTITLE5=Searchin'
TTITLE6=Lonely, Lonely Nights
TTITLE7=Shake a Hand
TTITLE8=Bo Diddley
TTITLE9=It Takes a Lot to Laugh, It Takes a Train to Cry
EXTD=
EXTT0=
EXTT1=
EXTT2=
EXTT3=
EXTT4=
EXTT5=
EXTT6=
EXTT7=
EXTT8=
EXTT9=
PLAYORDER=
